<?xml version="1.0" encoding="UTF-8"?>
<svg xmlns="http://www.w3.org/2000/svg" xmlns:xlink="http://www.w3.org/1999/xlink" width="96px" height="96px" viewBox="0 0 96 96" version="1.1">
<g id="surface1">
<path style=" stroke:none;fill-rule:nonzero;fill:rgb(0%,0%,0%);fill-opacity:1;" d="M 11.90625 27.4375 L 42.09375 10.015625 L 42.09375 15.703125 L 11.90625 33.125 Z M 72.0625 27.4375 L 41.890625 10.015625 L 41.890625 15.703125 L 72.0625 33.125 Z M 72.0625 27.4375 "/>
<path style=" stroke:none;fill-rule:nonzero;fill:rgb(0%,0%,0%);fill-opacity:1;" d="M 48.03125 6.34375 L 78.203125 23.765625 L 73.28125 26.609375 L 43.109375 9.171875 Z M 78.109375 58.4375 L 78.109375 23.59375 L 73.1875 26.4375 L 73.1875 61.28125 Z M 78.109375 58.4375 "/>
<path style=" stroke:none;fill-rule:nonzero;fill:rgb(0%,0%,0%);fill-opacity:1;" d="M 84.109375 27.125 L 84.109375 61.96875 L 79.171875 59.109375 L 79.171875 24.28125 Z M 54.03125 79.203125 L 84.203125 61.796875 L 79.28125 58.9375 L 49.109375 76.375 Z M 54.03125 79.203125 "/>
<path style=" stroke:none;fill-rule:nonzero;fill:rgb(0%,0%,0%);fill-opacity:1;" d="M 84.03125 68.671875 L 53.859375 86.09375 L 53.859375 80.40625 L 84.03125 62.984375 Z M 23.875 68.671875 L 54.0625 86.078125 L 54.0625 80.390625 L 23.875 62.96875 Z M 23.875 68.671875 "/>
<path style=" stroke:none;fill-rule:nonzero;fill:rgb(0%,0%,0%);fill-opacity:1;" d="M 48.0625 89.71875 L 17.890625 72.3125 L 22.8125 69.453125 L 52.984375 86.875 Z M 17.984375 37.625 L 17.984375 72.46875 L 22.921875 69.625 L 22.921875 34.78125 Z M 17.984375 37.625 "/>
<path style=" stroke:none;fill-rule:nonzero;fill:rgb(0%,0%,0%);fill-opacity:1;" d="M 11.90625 69.046875 L 11.90625 34.1875 L 16.828125 37.046875 L 16.828125 71.890625 Z M 41.984375 16.953125 L 11.8125 34.375 L 16.75 37.21875 L 46.921875 19.796875 Z M 41.984375 16.953125 "/>
</g>
</svg>
